<?xml version="1.0" encoding="UTF-8" standalone="no"?>
<!-- Generator: Adobe Illustrator 17.0.0, SVG Export Plug-In . SVG Version: 6.00 Build 0)  -->
<?xml-stylesheet href="../client/main.css" type="text/css"?>



<svg
	xmlns:dc="http://purl.org/dc/elements/1.1/"
	xmlns:cc="http://creativecommons.org/ns#"
	xmlns:rdf="http://www.w3.org/1999/02/22-rdf-syntax-ns#"
	xmlns:svg="http://www.w3.org/2000/svg"
	xmlns="http://www.w3.org/2000/svg"
	xmlns:sodipodi="http://sodipodi.sourceforge.net/DTD/sodipodi-0.dtd"
	xmlns:inkscape="http://www.inkscape.org/namespaces/inkscape"



	version="1.1"
	x="0px"
	y="0px"
	width="100%"
	height="100%"
	viewBox="0 0 720 256"
	enable-background="new 0 0 1024 512"
	xml:space="preserve"
	id="svgLogo"
	inkscape:version="0.91 r13725"
	sodipodi:docname="dakik_logo.svg">

	<metadata
		id="metadata30"><rdf:RDF><cc:Work
		rdf:about=""><dc:format>image/svg+xml</dc:format><dc:type
		rdf:resource="http://purl.org/dc/dcmitype/StillImage" /><dc:title /></cc:Work></rdf:RDF></metadata>


		<defs>
			<linearGradient id="green">
				<stop stop-color="#6ed3cf"/>
			</linearGradient>

			<linearGradient id="white">
				<stop stop-color="#9068be"/>
			</linearGradient>

			<linearGradient id="red">
				<stop stop-color="#e62739"/>
			</linearGradient>

			<linearGradient id="purple">
				<stop stop-color="#9068be"/>
			</linearGradient>

			<linearGradient id="dark">
				<stop stop-color="#242728"/>
			</linearGradient>

			<linearGradient id="svgFill">
				<stop stop-color="#00484F"/>
			</linearGradient>
		</defs>




		<sodipodi:namedview
			pagecolor="#ffffff"
			bordercolor="#666666"
			borderopacity="1"
			objecttolerance="10"
			gridtolerance="10"
			guidetolerance="10"
			inkscape:pageopacity="0"
			inkscape:pageshadow="2"
			inkscape:window-width="1366"
			inkscape:window-height="676"
			id="namedview26"
			showgrid="true"
			inkscape:zoom="1.4970776"
			inkscape:cx="100.81876"
			inkscape:cy="115.76473"
			inkscape:window-x="0"
			inkscape:window-y="20"
			inkscape:window-maximized="1"
			inkscape:current-layer="svg2"
			showguides="true"><inkscape:grid
			type="xygrid"
			id="grid4144" /></sodipodi:namedview><g
			id="Layer_2"
			transform="translate(107.13653,-255.7786)" /><g
			id="Layer_1"
			transform="translate(-30.501416,-135.08488)"><g
			id="g6"><path
			d="m 318.622,325.33151 -7.4601,-19.60957 -63.51876,0 -7.46008,20.03588 c -2.91431,7.81654 -5.40035,13.09202 -7.46009,15.82649 -2.06168,2.73446 -5.43528,4.1033 -10.12468,4.1033 -3.97975,0 -7.49696,-1.45683 -10.55099,-4.36983 -3.05597,-2.91235 -4.58266,-6.21609 -4.58266,-9.9112 0,-2.13155 0.3545,-4.33296 1.06545,-6.60747 0.70965,-2.27322 1.88184,-5.43527 3.51721,-9.48489 l 39.96567,-101.45898 c 1.13596,-2.91236 2.50481,-6.41146 4.10331,-10.49794 1.5985,-4.08455 3.30373,-7.47691 5.11571,-10.17773 1.81197,-2.69953 4.19128,-4.88412 7.14051,-6.55442 2.94729,-1.66837 6.58935,-2.50481 10.9236,-2.50481 4.40477,0 8.08112,0.8358 11.03036,2.50481 2.94728,1.6703 5.32853,3.81996 7.14051,6.44768 1.81197,2.62966 3.33867,5.4534 4.58266,8.47249 1.24205,3.02104 2.82438,7.05254 4.74244,12.09644 l 40.8183,100.81985 c 3.19699,7.67356 4.79614,13.2518 4.79614,16.73214 0,3.62331 -1.51052,6.94579 -4.52962,9.9649 -3.02104,3.01909 -6.66116,4.52961 -10.92425,4.52961 -2.48799,0 -4.61953,-0.44442 -6.39464,-1.33198 -1.77704,-0.88949 -3.2688,-2.09466 -4.47592,-3.62329 -1.20907,-1.52735 -2.50482,-3.87173 -3.88983,-7.03378 -1.38567,-3.16207 -2.57597,-5.95151 -3.57025,-8.3677 z m -62.66616,-43.37549 46.67988,0 -23.55309,-64.47812 -23.12679,64.47812 z"
			id="path8"
			inkscape:connector-curvature="0"
			fill="url(#svgFill)" /><path
			d="m 407.50518,203.30361 0,54.77974 62.13245,-64.79769 c 2.98416,-3.12583 5.52391,-5.43527 7.61987,-6.92768 2.09467,-1.49176 4.88412,-2.23829 8.3664,-2.23829 4.54578,0 8.22278,1.33198 11.03034,3.99657 2.80562,2.66459 4.21004,5.91464 4.21004,9.75141 0,4.61954 -2.38125,9.20221 -7.14051,13.74799 l -38.47327,36.44846 44.33486,63.51876 c 3.12584,4.40606 5.47021,8.25967 7.03377,11.5634 1.56228,3.30373 2.34438,6.51949 2.34438,9.64532 0,3.48228 -1.36885,6.50073 -4.1033,9.05858 -2.73576,2.55786 -6.44768,3.83678 -11.13709,3.83678 -4.40606,0 -7.99313,-0.94253 -10.76381,-2.82437 -2.77069,-1.88184 -5.11571,-4.386 -7.03378,-7.51378 -1.91807,-3.12584 -3.62331,-5.96833 -5.11571,-8.52618 l -37.40782,-57.55044 -25.89682,24.83202 0,32.2921 c 0,6.53761 -1.49176,11.38679 -4.47593,14.54757 -2.98416,3.16076 -6.82094,4.74244 -11.51034,4.74244 -2.70082,0 -5.29361,-0.71094 -7.77966,-2.13155 -2.48798,-1.4206 -4.40606,-3.33866 -5.75484,-5.75485 -0.99559,-1.98858 -1.5985,-4.29802 -1.81198,-6.92768 -0.21283,-2.62772 -0.31957,-6.42957 -0.31957,-11.40361 l 0,-116.16502 c 0,-6.39464 1.40184,-11.19013 4.2094,-14.38778 2.80561,-3.19699 6.62429,-4.79614 11.45665,-4.79614 4.75926,0 8.61416,1.58168 11.56339,4.74245 2.94794,3.16271 4.42288,7.97696 4.42288,14.44147 z"
			id="path10"
			inkscape:connector-curvature="0"
			fill="url(#svgFill)" /><path
			d="m 538.48493,326.39761 0,-123.094 c 0,-6.39464 1.45554,-11.19013 4.36983,-14.38778 2.91236,-3.19699 6.67734,-4.79614 11.29687,-4.79614 4.75927,0 8.61417,1.58168 11.5634,4.74245 2.94728,3.16206 4.42287,7.97631 4.42287,14.44082 l 0,123.094 c 0,6.4658 -1.47559,11.29687 -4.42287,14.49451 -2.94923,3.19699 -6.80413,4.79614 -11.5634,4.79614 -4.54773,0 -8.29589,-1.61726 -11.24382,-4.84918 -2.94923,-3.23258 -4.42288,-8.04618 -4.42288,-14.44082 z"
			id="path12"
			inkscape:connector-curvature="0"
			fill="url(#svgFill)" /><path
			d="m 637.3867,203.30361 0,54.77974 62.1331,-64.79769 c 2.98417,-3.12583 5.52326,-5.43527 7.61987,-6.92768 2.09468,-1.49176 4.88412,-2.23829 8.36641,-2.23829 4.54578,0 8.22278,1.33198 11.03034,3.99657 2.80562,2.66459 4.2094,5.91464 4.2094,9.75141 0,4.61954 -2.38125,9.20221 -7.14052,13.74799 l -38.47326,36.44846 44.33485,63.51876 c 3.12583,4.40606 5.47021,8.25967 7.03378,11.5634 1.56226,3.30373 2.34437,6.51949 2.34437,9.64532 0,3.48228 -1.36884,6.50073 -4.10331,9.05858 -2.73575,2.55786 -6.44768,3.83678 -11.13708,3.83678 -4.40605,0 -7.99313,-0.94253 -10.76382,-2.82437 -2.77069,-1.88184 -5.11571,-4.386 -7.03378,-7.51378 -1.91806,-3.12584 -3.6233,-5.96833 -5.11571,-8.52618 l -37.40781,-57.55044 -25.89747,24.83202 0,32.2921 c 0,6.53761 -1.49176,11.38679 -4.47593,14.54757 -2.98415,3.16076 -6.82094,4.74244 -11.51033,4.74244 -2.70083,0 -5.29362,-0.71094 -7.77966,-2.13155 -2.48799,-1.4206 -4.40606,-3.33866 -5.75485,-5.75485 -0.99559,-1.98858 -1.5985,-4.29802 -1.81198,-6.92768 -0.21283,-2.62772 -0.31957,-6.42957 -0.31957,-11.40361 l 0,-116.16502 c 0,-6.39464 1.40184,-11.19013 4.2094,-14.38778 2.80562,-3.19699 6.62428,-4.79614 11.45666,-4.79614 4.75926,0 8.61415,1.58168 11.56338,4.74245 2.94794,3.16271 4.42352,7.97696 4.42352,14.44147 z"
			id="path14"
			inkscape:connector-curvature="0"
			fill="url(#svgFill)" /></g><path
			d="m 570.03763,164.29858 c 0,6.27626 -5.08789,11.36415 -11.36415,11.36415 l -9.23325,0 c -6.27625,0 -11.36414,-5.08789 -11.36414,-11.36415 l 0,-9.23324 c 0,-6.27626 5.08789,-11.36415 11.36414,-11.36415 l 9.23325,0 c 6.27626,0 11.36415,5.08789 11.36415,11.36415 l 0,9.23324 z"
			id="path16"
			inkscape:connector-curvature="0"
			fill="url(#svgFill)" /><path
			d="m 52.034,169.28 0,-7.667 c 49.955,4.425 89.875,44.253 94.437,94.169 l -7.935,0 c -5.116,0 -9.256,4.14 -9.256,9.258 0,5.118 4.141,9.259 9.256,9.259 l 7.978,0 c -4.303,50.186 -44.333,90.306 -94.48,94.747 l 0,-8.246 c 0,-5.118 -4.139,-9.259 -9.256,-9.259 l 0,-67.696 c 5.456,0 9.928,-4.204 10.37,-9.545 l 45.88,-34.666 c 3.074,-2.315 3.67,-6.689 1.357,-9.727 -2.315,-3.074 -6.672,-3.653 -9.71,-1.375 l -45.893,34.679 c -0.65,-0.126 -1.319,-0.197 -2.005,-0.197 l 0,-84.477 c 5.118,0.001 9.257,-4.139 9.257,-9.257 z"
			id="path18"
			inkscape:connector-curvature="0"
			style="fill:none" /><path
			d="m 52.034,360.8 0,8.245 c 50.147,-4.441 90.177,-44.561 94.48,-94.747 l -7.978,0 c -5.116,0 -9.256,-4.141 -9.256,-9.259 0,-5.118 4.141,-9.258 9.256,-9.258 l 7.935,0 c -4.562,-49.916 -44.482,-89.744 -94.437,-94.169 l 0,7.667 c 0,5.118 -4.139,22.149 -9.256,22.149 l 0,-48.765 c 67.752,0 129.25719,54.24403 129.25719,121.99703 0,67.751 -61.50519,123.33297 -129.25719,123.33297 l 0,-46.756 c 5.117,10e-4 9.256,14.446 9.256,19.563 z"
			id="path20"
			inkscape:connector-curvature="0"
			fill="url(#svgFill)"
			sodipodi:nodetypes="sccsssccsccsccs" /><path
			d="m 42.792,263.212 45.893,-34.679 c 3.037,-2.279 7.394,-1.7 9.71,1.375 2.313,3.038 1.717,7.412 -1.357,9.727 l -53.682,43.558 c -0.443,5.341 -1.214,-20.107 -0.564,-19.981 z"
			id="path22"
			inkscape:connector-curvature="0"
			fill="url(#svgFill)" /><path
			d="m 42.876,283.661 72.522,32.382 c 3.51,1.555 7.602,10e-4 9.172,-3.512 1.576,-3.497 -0.017,-7.596 -3.514,-9.171 L 42.868,263.089 c -0.032,-0.099 -0.238,20.682 0.008,20.572 z"
			id="path24"
			inkscape:connector-curvature="0"
			fill="url(#svgFill)" /></g>
		</svg>
