<?xml version="1.0" encoding="utf-8"?>
<!-- Generator: Adobe Illustrator 17.0.0, SVG Export Plug-In . SVG Version: 6.00 Build 0)  -->
<!DOCTYPE svg PUBLIC "-//W3C//DTD SVG 1.1//EN" "http://www.w3.org/Graphics/SVG/1.1/DTD/svg11.dtd">
<svg version="1.1" xmlns="http://www.w3.org/2000/svg" xmlns:xlink="http://www.w3.org/1999/xlink" x="0px" y="0px" width="1024px"
	 height="512px" viewBox="0 0 1024 512" enable-background="new 0 0 1024 512" xml:space="preserve">
<g id="Layer_2">
</g>
<g id="Layer_1">
	<g>
		<path fill="#64C6E9" d="M347.865,361.689l-11.532-30.313h-98.189l-11.532,30.972c-4.505,12.083-8.348,20.238-11.532,24.465
			c-3.187,4.227-8.402,6.343-15.651,6.343c-6.152,0-11.589-2.252-16.31-6.755c-4.724-4.502-7.084-9.609-7.084-15.321
			c0-3.295,0.548-6.698,1.647-10.214c1.097-3.514,2.909-8.402,5.437-14.662l61.78-156.838c1.756-4.502,3.872-9.911,6.343-16.228
			c2.471-6.314,5.107-11.558,7.908-15.733c2.801-4.173,6.479-7.55,11.038-10.132c4.556-2.579,10.186-3.872,16.886-3.872
			c6.809,0,12.492,1.292,17.051,3.872c4.556,2.582,8.237,5.905,11.038,9.967c2.801,4.065,5.161,8.43,7.084,13.097
			c1.92,4.67,4.366,10.902,7.331,18.699l63.098,155.85c4.942,11.862,7.414,20.485,7.414,25.865c0,5.601-2.335,10.737-7.002,15.404
			c-4.67,4.667-10.297,7.002-16.887,7.002c-3.846,0-7.141-0.687-9.885-2.059c-2.747-1.375-5.053-3.238-6.919-5.601
			c-1.869-2.361-3.872-5.985-6.013-10.873C351.242,369.736,349.402,365.424,347.865,361.689z M250.994,294.638h72.159
			l-36.409-99.672L250.994,294.638z"/>
		<path fill="#64C6E9" d="M485.263,173.055v84.68l96.046-100.166c4.613-4.832,8.539-8.402,11.779-10.709
			c3.238-2.306,7.55-3.46,12.933-3.46c7.027,0,12.711,2.059,17.051,6.178c4.337,4.119,6.508,9.143,6.508,15.074
			c0,7.141-3.681,14.225-11.038,21.252l-59.473,56.343l68.534,98.189c4.832,6.811,8.456,12.768,10.873,17.875
			c2.415,5.107,3.624,10.078,3.624,14.91c0,5.383-2.116,10.049-6.343,14.003c-4.229,3.954-9.967,5.931-17.216,5.931
			c-6.811,0-12.356-1.457-16.639-4.366c-4.283-2.909-7.908-6.78-10.873-11.615c-2.965-4.832-5.601-9.226-7.908-13.18l-57.826-88.963
			l-40.032,38.386v49.918c0,10.106-2.306,17.602-6.919,22.488c-4.613,4.886-10.544,7.331-17.793,7.331
			c-4.175,0-8.183-1.099-12.026-3.295c-3.846-2.196-6.811-5.161-8.896-8.896c-1.539-3.074-2.471-6.644-2.801-10.709
			c-0.329-4.062-0.494-9.939-0.494-17.628V173.055c0-9.885,2.167-17.298,6.507-22.241c4.337-4.942,10.24-7.414,17.71-7.414
			c7.357,0,13.316,2.445,17.875,7.331C482.983,155.62,485.263,163.062,485.263,173.055z"/>
		<path fill="#64C6E9" d="M687.735,363.337V173.055c0-9.885,2.25-17.298,6.755-22.241c4.502-4.942,10.322-7.414,17.463-7.414
			c7.357,0,13.316,2.445,17.875,7.331c4.556,4.888,6.837,12.33,6.837,22.323v190.282c0,9.995-2.281,17.463-6.837,22.406
			c-4.559,4.942-10.518,7.414-17.875,7.414c-7.03,0-12.824-2.5-17.381-7.496C690.013,380.663,687.735,373.222,687.735,363.337z"/>
		<path fill="#64C6E9" d="M840.62,173.055v84.68l96.047-100.166c4.613-4.832,8.538-8.402,11.779-10.709
			c3.238-2.306,7.55-3.46,12.933-3.46c7.027,0,12.711,2.059,17.051,6.178c4.337,4.119,6.507,9.143,6.507,15.074
			c0,7.141-3.681,14.225-11.038,21.252l-59.473,56.343l68.534,98.189c4.832,6.811,8.456,12.768,10.873,17.875
			c2.415,5.107,3.624,10.078,3.624,14.91c0,5.383-2.116,10.049-6.343,14.003c-4.229,3.954-9.967,5.931-17.216,5.931
			c-6.811,0-12.356-1.457-16.639-4.366s-7.908-6.78-10.873-11.615c-2.965-4.832-5.601-9.226-7.908-13.18l-57.826-88.963
			l-40.033,38.386v49.918c0,10.106-2.306,17.602-6.919,22.488c-4.613,4.886-10.544,7.331-17.793,7.331
			c-4.175,0-8.183-1.099-12.026-3.295c-3.846-2.196-6.811-5.161-8.896-8.896c-1.539-3.074-2.471-6.644-2.801-10.709
			c-0.329-4.062-0.494-9.939-0.494-17.628V173.055c0-9.885,2.167-17.298,6.507-22.241c4.337-4.942,10.24-7.414,17.71-7.414
			c7.357,0,13.316,2.445,17.875,7.331C838.339,155.62,840.62,163.062,840.62,173.055z"/>
	</g>
	<path fill="#64C6E9" d="M736.51,112.76c0,9.702-7.865,17.567-17.567,17.567h-14.273c-9.702,0-17.567-7.865-17.567-17.567V98.487
		c0-9.702,7.865-17.567,17.567-17.567h14.273c9.702,0,17.567,7.865,17.567,17.567V112.76z"/>
	<path fill="none" d="M52.034,169.28v-7.667c49.955,4.425,89.875,44.253,94.437,94.169h-7.935c-5.116,0-9.256,4.14-9.256,9.258
		s4.141,9.259,9.256,9.259h7.978c-4.303,50.186-44.333,90.306-94.48,94.747V360.8c0-5.118-4.139-9.259-9.256-9.259v-67.696
		c5.456,0,9.928-4.204,10.37-9.545l45.88-34.666c3.074-2.315,3.67-6.689,1.357-9.727c-2.315-3.074-6.672-3.653-9.71-1.375
		l-45.893,34.679c-0.65-0.126-1.319-0.197-2.005-0.197v-84.477C47.895,178.538,52.034,174.398,52.034,169.28z"/>
	<path fill="#64C6E9" d="M52.034,360.8v8.245c50.147-4.441,90.177-44.561,94.48-94.747h-7.978c-5.116,0-9.256-4.141-9.256-9.259
		s4.141-9.258,9.256-9.258h7.935c-4.562-49.916-44.482-89.744-94.437-94.169v7.667c0,5.118-4.139,22.149-9.256,22.149v-48.765
		c67.752,0,133.265,54.912,133.265,122.665c0,67.751-65.513,122.665-133.265,122.665v-46.756
		C47.895,341.238,52.034,355.683,52.034,360.8z"/>
	<path fill="#64C6E9" d="M42.792,263.212l45.893-34.679c3.037-2.279,7.394-1.7,9.71,1.375c2.313,3.038,1.717,7.412-1.357,9.727
		l-53.682,43.558C42.913,288.534,42.142,263.086,42.792,263.212z"/>
	<path fill="#64C6E9" d="M42.876,283.661l72.522,32.382c3.51,1.555,7.602,0.001,9.172-3.512c1.576-3.497-0.017-7.596-3.514-9.171
		l-78.188-40.271C42.836,262.99,42.63,283.771,42.876,283.661z"/>
</g>
</svg>
