<?xml version="1.0" encoding="UTF-8" standalone="no"?>
<!-- Generator: Adobe Illustrator 17.0.0, SVG Export Plug-In . SVG Version: 6.00 Build 0)  -->

<?xml-stylesheet href="../client/main.css" type="text/css"?><svg
   xmlns:dc="http://purl.org/dc/elements/1.1/"
   xmlns:cc="http://creativecommons.org/ns#"
   xmlns:rdf="http://www.w3.org/1999/02/22-rdf-syntax-ns#"
   xmlns:svg="http://www.w3.org/2000/svg"
   xmlns="http://www.w3.org/2000/svg"
   xmlns:sodipodi="http://sodipodi.sourceforge.net/DTD/sodipodi-0.dtd"
   xmlns:inkscape="http://www.inkscape.org/namespaces/inkscape"
   version="1.1"
   x="0px"
   y="0px"
   width="100%"
   height="100%"
   viewBox="0 0 154 256"
   enable-background="new 0 0 1024 512"
   xml:space="preserve"
   id="svgLogo"
   inkscape:version="0.91 r13725"
   sodipodi:docname="icong.svg"><metadata
     id="metadata30"><rdf:RDF><cc:Work
         rdf:about=""><dc:format>image/svg+xml</dc:format><dc:type
           rdf:resource="http://purl.org/dc/dcmitype/StillImage" /><dc:title /></cc:Work></rdf:RDF></metadata><defs
     id="defs4"><linearGradient
       id="green"><stop
         id="stop7"
         style="stop-color:#6ed3cf;stop-opacity:1"
         offset="0" /></linearGradient><linearGradient
       id="white"><stop
         stop-color="#9068be"
         id="stop10" /></linearGradient><linearGradient
       id="red"><stop
         stop-color="#e62739"
         id="stop13" /></linearGradient><linearGradient
       id="purple"><stop
         stop-color="#9068be"
         id="stop16" /></linearGradient><linearGradient
       id="dark"><stop
         stop-color="#242728"
         id="stop19" /></linearGradient><linearGradient
       id="svgFill"><stop
         stop-color="#9068be"
         id="stop22" /></linearGradient></defs><sodipodi:namedview
     pagecolor="#ffffff"
     bordercolor="#666666"
     borderopacity="1"
     objecttolerance="10"
     gridtolerance="10"
     guidetolerance="10"
     inkscape:pageopacity="0"
     inkscape:pageshadow="2"
     inkscape:window-width="1366"
     inkscape:window-height="676"
     id="namedview26"
     showgrid="true"
     inkscape:zoom="1.0585937"
     inkscape:cx="-155.11497"
     inkscape:cy="116.33669"
     inkscape:window-x="0"
     inkscape:window-y="20"
     inkscape:window-maximized="1"
     inkscape:current-layer="Layer_1"
     showguides="true"><inkscape:grid
       type="xygrid"
       id="grid4144" /></sodipodi:namedview><g
     id="Layer_2"
     transform="translate(107.13653,-255.7786)" /><g
     id="Layer_1"
     transform="translate(-30.501416,-135.08488)"><g
       id="g6" /><path
       d="m 52.034,360.8 0,8.245 c 50.147,-4.441 90.177,-44.561 94.48,-94.747 l -7.978,0 c -5.116,0 -9.256,-4.141 -9.256,-9.259 0,-5.118 4.141,-9.258 9.256,-9.258 l 7.935,0 c -4.562,-49.916 -44.482,-89.744 -94.437,-94.169 l 0,7.667 c 0,5.118 -4.139,22.149 -9.256,22.149 l 0,-48.765 c 67.752,0 129.25719,54.24403 129.25719,121.99703 0,67.751 -61.50519,123.33297 -129.25719,123.33297 l 0,-46.756 c 5.117,10e-4 9.256,14.446 9.256,19.563 z"
       id="path20"
       inkscape:connector-curvature="0"
       sodipodi:nodetypes="sccsssccsccsccs"
       circle=""
       style="fill:url(#svgFill)" /><path
       d="m 42.792,263.212 45.893,-34.679 c 3.037,-2.279 7.394,-1.7 9.71,1.375 2.313,3.038 1.717,7.412 -1.357,9.727 l -53.682,43.558 c -0.443,5.341 -1.214,-20.107 -0.564,-19.981 z"
       id="dial1"
       inkscape:connector-curvature="0"
       style="fill:url(#purple)" /><path
       d="m 42.876,283.661 72.522,32.382 c 3.51,1.555 7.602,10e-4 9.172,-3.512 1.576,-3.497 -0.017,-7.596 -3.514,-9.171 L 42.868,263.089 c -0.032,-0.099 -0.238,20.682 0.008,20.572 z"
       id="dial2"
       inkscape:connector-curvature="0"
       style="fill:url(#purple)" /></g></svg>
